<?xml version="1.0" encoding="utf-8"?>
<!-- Svg Vector Icons : http://www.onlinewebfonts.com/icon -->
<!DOCTYPE svg PUBLIC "-//W3C//DTD SVG 1.1//EN" "http://www.w3.org/Graphics/SVG/1.1/DTD/svg11.dtd">
<svg version="1.1" xmlns="http://www.w3.org/2000/svg" xmlns:xlink="http://www.w3.org/1999/xlink" x="0px" y="0px" viewBox="0 0 1000 1000" enable-background="new 0 0 1000 1000" xml:space="preserve">
<metadata> Svg Vector Icons : http://www.onlinewebfonts.com/icon </metadata>
<g><g><g><path d="M893,644.5c-81.2-18.6-156.2-1.4-169.5,46.6c-13.4,48.1,64.8,128.2,121.1,127.5c12.9-0.2,40.1-17.3,59.4-79.6C921.6,681.9,903.9,647,893,644.5z"/><path d="M580.9,822.3c-32,38.3,6.3,143.5,58,166c11.8,5.1,43.7,0.8,86.9-48.2c39.5-44.8,37.7-83.9,28.8-90.6C688.3,799.2,612.9,784,580.9,822.3z"/><path d="M735.6,514.1c9.6,49,115.3,85.8,165.3,59.9c11.4-5.9,28.2-33.3,17.6-97.8c-9.7-58.9-41.2-82.2-52-79.6C785.5,416.3,726.1,465.1,735.6,514.1z"/><path d="M704.8,684.2c14.9-53.8,97.7-78,187.1-56.1c0-0.2,0.1-0.4,0.1-0.5c0.5-10.3-0.1-20.6-1.7-30.9c-92.5,5.7-170.2-33.3-175.1-89.1c-2.9-33.4,20.8-65.3,59.9-88c-6.2-5.5-12.4-11-18.7-16.2c-13.1,7.1-27.3,11-42.1,10.8c-45.4-0.9-83.8-39.8-101.1-95.3c-77.3-20-205-5.3-138.6,196.7c0,0,50.3,122.6-14,213.9c-64.3,91.3,16.4,153.9,86.6,163.9c-6-28.2-2.1-55.1,13.6-75.8c35.5-47.1,118.1-45,187.9,3.1c9.3-5.9,18.4-12.1,27.3-18.6C723.5,770,693.6,724.4,704.8,684.2z M593.6,751.9c-41.1-5.2-88.2-37.3-50.6-84.2c37.5-46.9,8.2-109.8,8.2-109.8c-38.8-103.7,35.8-111.2,81-101c30.1,9.2,50.1,35.2,49.2,145.8C680.2,729.3,620.3,751.9,593.6,751.9z"/><path d="M731.9,96c-0.3-13.1-11.8-86-20.8-86c-9.4,0-2.2,28.6-10.1,58c-4.2,15.6-9.6,22-9.9,32C690.4,119.7,732.3,114.1,731.9,96z"/><path d="M717.8,398.1c58.3-1.1,85.6-74.2,85.7-155.8c0.1-54.5-23.8-102.2-68.3-132.7c0.8,15.5-59.1,13.1-50.8-1.1c-27,17.4-62.8,90-62.8,144.8C621.7,334.8,659.4,399.2,717.8,398.1z M706.1,159.2c25.1,0,45.5,32.3,45.5,72.2c0,39.9-20.3,72.2-45.5,72.2c-25.1,0-45.5-32.3-45.5-72.2C660.6,191.6,680.9,159.2,706.1,159.2z"/><path d="M418,446c-15.1-25.2-25.2-11.7-48.7,0c-31.9,16.8-70.8,46.2-120.8,46.2c-47,0-107.8-18.1-127.5-36.2c0,0-55.4,60.4-40.3,295.3c0,0,102.6,16.9,144.6,20.9c41.3,4,147.3,7.6,174.2-4.1c9.7-4.4,51.4-85.4,55.4-165.4C458.4,530.8,425.1,459.5,418,446z"/></g></g><g></g><g></g><g></g><g></g><g></g><g></g><g></g><g></g><g></g><g></g><g></g><g></g><g></g><g></g><g></g></g>
</svg>